<svg width="171" height="24" viewBox="0 0 171 24" fill="none" xmlns="http://www.w3.org/2000/svg">
<path d="M38.615 18V7.56H40.97V18H38.615ZM35.3 9.465V7.41H44.285V9.465H35.3ZM42.7514 18L46.9514 7.41H49.0814L53.2364 18H50.7464L47.5664 9.21H48.4214L45.1964 18H42.7514ZM45.1364 16.08V14.16H50.9114V16.08H45.1364ZM55.4069 18V16.17H57.8969C58.3569 16.17 58.7169 16.035 58.9769 15.765C59.2369 15.495 59.3669 15.165 59.3669 14.775C59.3669 14.505 59.3069 14.265 59.1869 14.055C59.0669 13.845 58.8969 13.68 58.6769 13.56C58.4669 13.44 58.2069 13.38 57.8969 13.38H55.4069V11.595H57.7019C58.0919 11.595 58.4069 11.5 58.6469 11.31C58.8869 11.11 59.0069 10.81 59.0069 10.41C59.0069 10.02 58.8869 9.73 58.6469 9.54C58.4069 9.34 58.0919 9.24 57.7019 9.24H55.4069V7.41H58.1519C58.8319 7.41 59.4069 7.535 59.8769 7.785C60.3569 8.035 60.7219 8.37 60.9719 8.79C61.2219 9.21 61.3469 9.675 61.3469 10.185C61.3469 10.835 61.1369 11.385 60.7169 11.835C60.2969 12.285 59.6769 12.595 58.8569 12.765L58.9169 11.97C59.8069 12.14 60.4919 12.485 60.9719 13.005C61.4619 13.525 61.7069 14.165 61.7069 14.925C61.7069 15.505 61.5619 16.03 61.2719 16.5C60.9919 16.96 60.5819 17.325 60.0419 17.595C59.5119 17.865 58.8719 18 58.1219 18H55.4069ZM53.6069 18V7.41H55.9319V18H53.6069ZM66.6792 18V7.41H68.3592L72.5292 13.905H71.6742L75.8292 7.41H77.5242V18H75.1692V11.385L75.5892 11.49L72.8742 15.72H71.3142L68.6142 11.49L69.0192 11.385V18H66.6792ZM78.0102 18L82.2102 7.41H84.3402L88.4952 18H86.0052L82.8252 9.21H83.6802L80.4552 18H78.0102ZM80.3952 16.08V14.16H86.1702V16.08H80.3952ZM88.8657 18V7.41H90.5157L91.2207 9.525V18H88.8657ZM96.1707 18L89.9307 10.005L90.5157 7.41L96.7557 15.405L96.1707 18ZM96.1707 18L95.5407 15.885V7.41H97.8957V18H96.1707ZM98.3949 18L102.595 7.41H104.725L108.88 18H106.39L103.21 9.21H104.065L100.84 18H98.3949ZM100.78 16.08V14.16H106.555V16.08H100.78ZM113.674 18.165C112.904 18.165 112.179 18.025 111.499 17.745C110.829 17.465 110.244 17.08 109.744 16.59C109.244 16.09 108.849 15.51 108.559 14.85C108.279 14.18 108.139 13.46 108.139 12.69C108.139 11.92 108.284 11.205 108.574 10.545C108.864 9.885 109.264 9.31 109.774 8.82C110.294 8.32 110.899 7.935 111.589 7.665C112.279 7.385 113.019 7.245 113.809 7.245C114.719 7.245 115.544 7.41 116.284 7.74C117.034 8.07 117.654 8.525 118.144 9.105L116.539 10.71C116.199 10.27 115.799 9.94 115.339 9.72C114.879 9.5 114.359 9.39 113.779 9.39C113.159 9.39 112.604 9.53 112.114 9.81C111.624 10.08 111.239 10.465 110.959 10.965C110.689 11.455 110.554 12.03 110.554 12.69C110.554 13.35 110.689 13.93 110.959 14.43C111.229 14.93 111.599 15.32 112.069 15.6C112.539 15.88 113.079 16.02 113.689 16.02C114.309 16.02 114.834 15.905 115.264 15.675C115.704 15.435 116.039 15.095 116.269 14.655C116.509 14.205 116.629 13.66 116.629 13.02L118.189 14.07L113.464 13.995V12H119.029V12.345C119.029 13.615 118.799 14.685 118.339 15.555C117.889 16.415 117.259 17.065 116.449 17.505C115.649 17.945 114.724 18.165 113.674 18.165ZM119.707 18V7.41H122.062V18H119.707ZM121.507 18V15.96H127.312V18H121.507ZM121.507 13.575V11.61H126.787V13.575H121.507ZM121.507 9.435V7.41H127.237V9.435H121.507ZM129.985 13.635V11.895H132.22C132.69 11.895 133.05 11.775 133.3 11.535C133.56 11.295 133.69 10.97 133.69 10.56C133.69 10.18 133.565 9.865 133.315 9.615C133.065 9.365 132.705 9.24 132.235 9.24H129.985V7.41H132.505C133.205 7.41 133.82 7.545 134.35 7.815C134.88 8.075 135.295 8.44 135.595 8.91C135.895 9.38 136.045 9.92 136.045 10.53C136.045 11.15 135.895 11.695 135.595 12.165C135.295 12.625 134.875 12.985 134.335 13.245C133.795 13.505 133.16 13.635 132.43 13.635H129.985ZM128.185 18V7.41H130.54V18H128.185ZM133.945 18L130.645 13.44L132.805 12.855L136.735 18H133.945Z" fill="black"/>
<rect width="7.49999" height="6.42856" fill="black"/>
<rect x="22.5" y="8.57129" width="7.49999" height="6.42856" fill="black"/>
<rect x="10.7144" width="19.2857" height="6.42856" fill="black"/>
<rect y="8.57129" width="19.2857" height="6.42856" fill="black"/>
<rect y="17.1428" width="29.9999" height="6.42856" fill="black"/>
</svg>
