<svg width="125" height="125" viewBox="0 0 125 125" fill="none" xmlns="http://www.w3.org/2000/svg">
<path d="M78.6458 71.3958H75.3542L74.1875 70.2708C78.2708 65.5208 80.7292 59.3542 80.7292 52.6458C80.7292 37.6875 68.6042 25.5625 53.6458 25.5625C38.6875 25.5625 26.5625 37.6875 26.5625 52.6458C26.5625 67.6042 38.6875 79.7292 53.6458 79.7292C60.3542 79.7292 66.5208 77.2708 71.2708 73.1875L72.3958 74.3542V77.6458L93.2292 98.4375L99.4375 92.2292L78.6458 71.3958ZM53.6458 71.3958C43.2708 71.3958 34.8958 63.0208 34.8958 52.6458C34.8958 42.2708 43.2708 33.8958 53.6458 33.8958C64.0208 33.8958 72.3958 42.2708 72.3958 52.6458C72.3958 63.0208 64.0208 71.3958 53.6458 71.3958Z" fill="black"/>
</svg>
