<svg width="125" height="125" viewBox="0 0 125 125" fill="none" xmlns="http://www.w3.org/2000/svg">
<path d="M58.3333 50.5H41.6667C39.375 50.5 37.5 52.375 37.5 54.6667V71.3333C37.5 73.625 39.375 75.5 41.6667 75.5H58.3333C60.625 75.5 62.5 73.625 62.5 71.3333V54.6667C62.5 52.375 60.625 50.5 58.3333 50.5ZM54.1667 67.1667H45.8333V58.8333H54.1667V67.1667ZM87.5 54.6667C87.5 52.375 85.625 50.5 83.3333 50.5H79.1667V42.1667C79.1667 37.5833 75.4167 33.8333 70.8333 33.8333H62.5V29.6667C62.5 27.375 60.625 25.5 58.3333 25.5C56.0417 25.5 54.1667 27.375 54.1667 29.6667V33.8333H45.8333V29.6667C45.8333 27.375 43.9583 25.5 41.6667 25.5C39.375 25.5 37.5 27.375 37.5 29.6667V33.8333H29.1667C24.5833 33.8333 20.8333 37.5833 20.8333 42.1667V50.5H16.6667C14.375 50.5 12.5 52.375 12.5 54.6667C12.5 56.9583 14.375 58.8333 16.6667 58.8333H20.8333V67.1667H16.6667C14.375 67.1667 12.5 69.0417 12.5 71.3333C12.5 73.625 14.375 75.5 16.6667 75.5H20.8333V83.8333C20.8333 88.4167 24.5833 92.1667 29.1667 92.1667H37.5V96.3333C37.5 98.625 39.375 100.5 41.6667 100.5C43.9583 100.5 45.8333 98.625 45.8333 96.3333V92.1667H54.1667V96.3333C54.1667 98.625 56.0417 100.5 58.3333 100.5C60.625 100.5 62.5 98.625 62.5 96.3333V92.1667H70.8333C75.4167 92.1667 79.1667 88.4167 79.1667 83.8333V75.5H83.3333C85.625 75.5 87.5 73.625 87.5 71.3333C87.5 69.0417 85.625 67.1667 83.3333 67.1667H79.1667V58.8333H83.3333C85.625 58.8333 87.5 56.9583 87.5 54.6667ZM66.6667 83.8333H33.3333C31.0417 83.8333 29.1667 81.9583 29.1667 79.6667V46.3333C29.1667 44.0417 31.0417 42.1667 33.3333 42.1667H66.6667C68.9583 42.1667 70.8333 44.0417 70.8333 46.3333V79.6667C70.8333 81.9583 68.9583 83.8333 66.6667 83.8333Z" fill="white"/>
<path d="M114.583 44.7708V35.3958L99.9999 45.8125L85.4166 35.3958V44.7708L99.9999 55.1875L114.583 44.7708Z" fill="#4299FF"/>
<path d="M114.583 30.1875V20.8125L99.9999 31.2292L85.4166 20.8125V30.1875L99.9999 40.6042L114.583 30.1875Z" fill="#4299FF"/>
</svg>
